<svg width="449" height="449" viewBox="0 0 449 449" fill="none" xmlns="http://www.w3.org/2000/svg">
<path d="M0 100C0 44.7715 44.7715 0 100 0H349C404.228 0 449 44.7715 449 100V349C449 404.228 404.228 449 349 449H100C44.7715 449 0 404.228 0 349V100Z" fill="#2F2F2F"/>
<path d="M114 109.151C114 125.636 100.636 139 84.1514 139C67.6668 139 54.3033 125.636 54.3033 109.151C54.3033 92.6668 67.6668 79.3033 84.1514 79.3033C100.636 79.3033 114 92.6668 114 109.151Z" fill="#FF0000"/>
<path d="M114 224.151C114 240.636 100.636 254 84.1514 254C67.6668 254 54.3033 240.636 54.3033 224.151C54.3033 207.667 67.6668 194.303 84.1514 194.303C100.636 194.303 114 207.667 114 224.151Z" fill="#FF0000"/>
<path d="M114 339.151C114 355.636 100.636 369 84.1514 369C67.6668 369 54.3033 355.636 54.3033 339.151C54.3033 322.667 67.6668 309.303 84.1514 309.303C100.636 309.303 114 322.667 114 339.151Z" fill="#FF0000"/>
<path d="M162 126C162 123.791 163.791 122 166 122H406C408.209 122 410 123.791 410 126C410 128.209 408.209 130 406 130H166C163.791 130 162 128.209 162 126Z" fill="#D9D9D9"/>
<path d="M162 365C162 362.791 163.791 361 166 361H406C408.209 361 410 362.791 410 365C410 367.209 408.209 369 406 369H166C163.791 369 162 367.209 162 365Z" fill="#D9D9D9"/>
<path d="M162 245C162 242.791 163.791 241 166 241H406C408.209 241 410 242.791 410 245C410 247.209 408.209 249 406 249H166C163.791 249 162 247.209 162 245Z" fill="#D9D9D9"/>
</svg>
